<svg xmlns="http://www.w3.org/2000/svg" viewBox="0 0 222 35"><g style="isolation:isolate"><g id="Layer_1" data-name="Layer 1"><path d="M34.84,16.28a7.33,7.33,0,0,1-3.65-.86A5.92,5.92,0,0,1,28.85,13,8.12,8.12,0,0,1,28,9.24a8,8,0,0,1,.81-3.72,6,6,0,0,1,2.34-2.43,7.33,7.33,0,0,1,3.65-.86,8.29,8.29,0,0,1,2.1.27,6.13,6.13,0,0,1,1.8.78,1.31,1.31,0,0,1,.6.78,1.18,1.18,0,0,1-.12.83,1,1,0,0,1-.64.51,1.15,1.15,0,0,1-.95-.22,4.33,4.33,0,0,0-1.3-.57,6,6,0,0,0-1.41-.17,4,4,0,0,0-3.16,1.25,5.27,5.27,0,0,0-1.08,3.55,5.32,5.32,0,0,0,1.08,3.57,3.94,3.94,0,0,0,3.16,1.26,5.88,5.88,0,0,0,1.45-.18,5.6,5.6,0,0,0,1.36-.57,1.11,1.11,0,0,1,.93-.22,1,1,0,0,1,.61.48,1.11,1.11,0,0,1,.13.78,1.25,1.25,0,0,1-.53.76A5.75,5.75,0,0,1,37,16,8,8,0,0,1,34.84,16.28Z" style="fill:#eb7900"/><path d="M45.07,16.28a5.17,5.17,0,0,1-2.55-.6A4.12,4.12,0,0,1,40.83,14a5.42,5.42,0,0,1-.6-2.62,5.42,5.42,0,0,1,.6-2.62A4.19,4.19,0,0,1,42.52,7a5.74,5.74,0,0,1,5.11,0,4.19,4.19,0,0,1,1.69,1.7,5.42,5.42,0,0,1,.6,2.62,5.42,5.42,0,0,1-.6,2.62,4.12,4.12,0,0,1-1.69,1.72A5.18,5.18,0,0,1,45.07,16.28Zm0-1.84a2.15,2.15,0,0,0,1.75-.79,3.5,3.5,0,0,0,.66-2.31A3.47,3.47,0,0,0,46.82,9a2.38,2.38,0,0,0-3.49,0,3.47,3.47,0,0,0-.66,2.32,3.5,3.5,0,0,0,.66,2.31A2.15,2.15,0,0,0,45.07,14.44Z" style="fill:#eb7900"/><path d="M53.12,16.24A1.08,1.08,0,0,1,51.91,15V7.68A1.07,1.07,0,0,1,53.1,6.45c.78,0,1.18.41,1.18,1.23v.4a3.26,3.26,0,0,1,1.31-1.24,4,4,0,0,1,1.85-.42c2.23,0,3.35,1.29,3.35,3.89V15a1.21,1.21,0,1,1-2.42,0V10.43A2.48,2.48,0,0,0,58,8.82a1.57,1.57,0,0,0-1.29-.51A2.23,2.23,0,0,0,55,9a2.5,2.5,0,0,0-.63,1.78V15A1.09,1.09,0,0,1,53.12,16.24Z" style="fill:#eb7900"/><path d="M66.72,16.28A10.06,10.06,0,0,1,65,16.11a5.19,5.19,0,0,1-1.67-.61,1,1,0,0,1-.48-1.21A.78.78,0,0,1,64,13.92a7,7,0,0,0,1.45.51,6.17,6.17,0,0,0,1.34.14,2.34,2.34,0,0,0,1.38-.32,1,1,0,0,0,.46-.84q0-.81-1.2-1.05L65.44,12C63.8,11.69,63,10.83,63,9.44a2.6,2.6,0,0,1,.51-1.61,3.32,3.32,0,0,1,1.43-1A5.61,5.61,0,0,1,67,6.42a6.09,6.09,0,0,1,3,.75.79.79,0,0,1,.44.53,1,1,0,0,1-.08.64.86.86,0,0,1-.45.43.89.89,0,0,1-.72-.07,5.72,5.72,0,0,0-1.15-.44A4.48,4.48,0,0,0,67,8.12a2.45,2.45,0,0,0-1.41.33,1,1,0,0,0-.45.87c0,.57.37.92,1.1,1l1.94.37a3.65,3.65,0,0,1,1.91.85,2.21,2.21,0,0,1,.65,1.67,2.57,2.57,0,0,1-1.11,2.21A4.84,4.84,0,0,1,66.72,16.28Z" style="fill:#eb7900"/><path d="M77,16.28q-3.77,0-3.76-3.72V8.43h-1c-.64,0-1-.3-1-.91s.33-.91,1-.91h1V4.85a1.21,1.21,0,1,1,2.42,0V6.61h2.06c.64,0,1,.3,1,.91s-.33.91-1,.91H75.61v4a2.09,2.09,0,0,0,.41,1.4,1.67,1.67,0,0,0,1.32.46,3.3,3.3,0,0,0,.58,0,3.08,3.08,0,0,1,.45-.08.45.45,0,0,1,.38.14,1,1,0,0,1,.16.67,1.67,1.67,0,0,1-.13.69.72.72,0,0,1-.45.42,4.92,4.92,0,0,1-.66.14A4,4,0,0,1,77,16.28Z" style="fill:#eb7900"/><path d="M81.29,16.24A1.09,1.09,0,0,1,80.05,15V7.68c0-.82.4-1.23,1.18-1.23a1.07,1.07,0,0,1,1.19,1.23v.6a3.2,3.2,0,0,1,3-1.86c.56-.07.87.25.93,1s-.27,1.06-1,1.14l-.42,0A2.27,2.27,0,0,0,82.51,11v4A1.08,1.08,0,0,1,81.29,16.24Z" style="fill:#eb7900"/><path d="M91.08,16.28q-3.49,0-3.49-3.92V7.68a1.21,1.21,0,1,1,2.42,0V12.4a2.32,2.32,0,0,0,.41,1.5,1.61,1.61,0,0,0,1.3.48,2.08,2.08,0,0,0,1.59-.67,2.51,2.51,0,0,0,.62-1.77V7.68a1.21,1.21,0,1,1,2.42,0V15c0,.83-.4,1.24-1.18,1.24S94,15.83,94,15v-.33A3.14,3.14,0,0,1,91.08,16.28Z" style="fill:#eb7900"/><path d="M103.25,16.28a5.26,5.26,0,0,1-2.6-.61A4.19,4.19,0,0,1,99,13.93a5.35,5.35,0,0,1-.61-2.63A5.25,5.25,0,0,1,99,8.69,4.05,4.05,0,0,1,100.65,7a5.37,5.37,0,0,1,2.6-.59,5.84,5.84,0,0,1,1.38.17,4.83,4.83,0,0,1,1.41.58.88.88,0,0,1,.45.6,1,1,0,0,1-.09.68.94.94,0,0,1-.49.45.8.8,0,0,1-.72-.1,3.47,3.47,0,0,0-1.73-.5,2.47,2.47,0,0,0-1.95.78,3.28,3.28,0,0,0-.68,2.24,3.43,3.43,0,0,0,.68,2.26,2.4,2.4,0,0,0,1.95.82,3.66,3.66,0,0,0,1.73-.48.76.76,0,0,1,.71-.1.83.83,0,0,1,.45.45,1.13,1.13,0,0,1,.06.68.93.93,0,0,1-.45.59,4.91,4.91,0,0,1-1.36.57A6,6,0,0,1,103.25,16.28Z" style="fill:#eb7900"/><path d="M112.39,16.28c-2.5,0-3.76-1.24-3.76-3.72V8.43h-1c-.65,0-1-.3-1-.91s.32-.91,1-.91h1V4.85a1.22,1.22,0,1,1,2.43,0V6.61h2c.65,0,1,.3,1,.91s-.32.91-1,.91h-2v4a2.09,2.09,0,0,0,.4,1.4,1.67,1.67,0,0,0,1.32.46,3.3,3.3,0,0,0,.58,0,3.08,3.08,0,0,1,.45-.08.48.48,0,0,1,.39.14,1.06,1.06,0,0,1,.15.67,1.67,1.67,0,0,1-.13.69.72.72,0,0,1-.45.42,4.92,4.92,0,0,1-.66.14A4,4,0,0,1,112.39,16.28Z" style="fill:#eb7900"/><path d="M117,4.67a1.5,1.5,0,0,1-1.06-.34,1.2,1.2,0,0,1-.38-.94,1.21,1.21,0,0,1,.38-1A1.55,1.55,0,0,1,117,2.11c1,0,1.43.43,1.43,1.28S117.9,4.67,117,4.67Zm0,11.55a1.09,1.09,0,0,1-.89-.35,1.38,1.38,0,0,1-.31-1V7.79q0-1.32,1.2-1.32c.81,0,1.22.44,1.22,1.32V14.9a1.43,1.43,0,0,1-.31,1A1.13,1.13,0,0,1,117,16.22Z" style="fill:#eb7900"/><path d="M125,16.28a5.21,5.21,0,0,1-2.56-.6A4.18,4.18,0,0,1,120.76,14a5.42,5.42,0,0,1-.6-2.62,5.42,5.42,0,0,1,.6-2.62A4.25,4.25,0,0,1,122.45,7a5.76,5.76,0,0,1,5.12,0,4.23,4.23,0,0,1,1.68,1.7,5.42,5.42,0,0,1,.6,2.62,5.42,5.42,0,0,1-.6,2.62,4.16,4.16,0,0,1-1.68,1.72A5.24,5.24,0,0,1,125,16.28Zm0-1.84a2.15,2.15,0,0,0,1.74-.79,3.5,3.5,0,0,0,.66-2.31A3.47,3.47,0,0,0,126.75,9a2.38,2.38,0,0,0-3.49,0,3.47,3.47,0,0,0-.66,2.32,3.5,3.5,0,0,0,.66,2.31A2.15,2.15,0,0,0,125,14.44Z" style="fill:#eb7900"/><path d="M133.05,16.24a1.08,1.08,0,0,1-1.2-1.24V7.68c0-.82.39-1.23,1.18-1.23s1.18.41,1.18,1.23v.4a3.32,3.32,0,0,1,1.31-1.24,4,4,0,0,1,1.85-.42c2.24,0,3.35,1.29,3.35,3.89V15a1.21,1.21,0,1,1-2.42,0V10.43a2.48,2.48,0,0,0-.42-1.61,1.54,1.54,0,0,0-1.28-.51,2.25,2.25,0,0,0-1.7.67,2.5,2.5,0,0,0-.63,1.78V15A1.09,1.09,0,0,1,133.05,16.24Z" style="fill:#eb7900"/><path d="M147.85,16.28a6,6,0,0,1-2.77-.6A4.28,4.28,0,0,1,143.29,14a5.17,5.17,0,0,1-.63-2.61,5.24,5.24,0,0,1,.61-2.58A4.46,4.46,0,0,1,145,7.05a4.73,4.73,0,0,1,2.45-.63,4.14,4.14,0,0,1,3.19,1.27,5,5,0,0,1,1.17,3.49q0,.72-.93.72H145a2.58,2.58,0,0,0,2.9,2.54,5.46,5.46,0,0,0,1.14-.13,4.24,4.24,0,0,0,1.19-.43,1.07,1.07,0,0,1,.85-.19.74.74,0,0,1,.49.42,1,1,0,0,1,0,.69,1.13,1.13,0,0,1-.55.65,5.21,5.21,0,0,1-1.56.63A7.63,7.63,0,0,1,147.85,16.28Zm-.34-8.22a2.33,2.33,0,0,0-1.73.66A2.94,2.94,0,0,0,145,10.5h4.76a2.91,2.91,0,0,0-.65-1.81A2,2,0,0,0,147.51,8.06Z" style="fill:#eb7900"/><path d="M154.29,16.18a1.05,1.05,0,0,1-.71-.24.82.82,0,0,1-.29-.63,1.25,1.25,0,0,1,.32-.81l2.67-3.3L153.8,8.14a1.22,1.22,0,0,1-.33-.81.9.9,0,0,1,.3-.63,1.08,1.08,0,0,1,.71-.25,1.67,1.67,0,0,1,.75.16,1.63,1.63,0,0,1,.55.48l1.9,2.45,1.92-2.45a1.87,1.87,0,0,1,.56-.48,1.53,1.53,0,0,1,.72-.16,1,1,0,0,1,.71.26.83.83,0,0,1,.28.64,1.2,1.2,0,0,1-.34.81l-2.48,3,2.7,3.3a1.16,1.16,0,0,1,.33.79.94.94,0,0,1-.3.64,1,1,0,0,1-.73.25,1.55,1.55,0,0,1-1.28-.64l-2.11-2.65-2.09,2.65A1.88,1.88,0,0,1,155,16,1.44,1.44,0,0,1,154.29,16.18Z" style="fill:#eb7900"/><path d="M165.41,19.73a1.07,1.07,0,0,1-1.2-1.22V7.68c0-.82.39-1.23,1.18-1.23a1.07,1.07,0,0,1,1.2,1.23v.4a3.09,3.09,0,0,1,1.22-1.21,3.82,3.82,0,0,1,1.86-.45,3.94,3.94,0,0,1,2.18.6,4,4,0,0,1,1.47,1.69,6,6,0,0,1,.52,2.63,6.06,6.06,0,0,1-.52,2.62,4,4,0,0,1-1.46,1.72,4,4,0,0,1-2.19.6,3.76,3.76,0,0,1-1.81-.44,3.15,3.15,0,0,1-1.23-1.17v3.84A1.08,1.08,0,0,1,165.41,19.73ZM169,14.44a2.15,2.15,0,0,0,1.74-.79,3.5,3.5,0,0,0,.66-2.31A3.47,3.47,0,0,0,170.74,9a2.38,2.38,0,0,0-3.49,0,3.47,3.47,0,0,0-.66,2.32,3.5,3.5,0,0,0,.66,2.31A2.15,2.15,0,0,0,169,14.44Z" style="fill:#eb7900"/><path d="M180.51,16.28a6,6,0,0,1-2.78-.6A4.28,4.28,0,0,1,175.94,14a5.17,5.17,0,0,1-.63-2.61,5.35,5.35,0,0,1,.61-2.58,4.46,4.46,0,0,1,1.69-1.73,4.75,4.75,0,0,1,2.45-.63,4.12,4.12,0,0,1,3.19,1.27,5,5,0,0,1,1.17,3.49q0,.72-.93.72h-5.85a2.58,2.58,0,0,0,2.9,2.54,5.46,5.46,0,0,0,1.14-.13,4.13,4.13,0,0,0,1.19-.43,1.08,1.08,0,0,1,.85-.19.76.76,0,0,1,.5.42,1,1,0,0,1,0,.69,1.19,1.19,0,0,1-.56.65,5.21,5.21,0,0,1-1.56.63A7.54,7.54,0,0,1,180.51,16.28Zm-.35-8.22a2.34,2.34,0,0,0-1.73.66,2.94,2.94,0,0,0-.79,1.78h4.76a2.91,2.91,0,0,0-.64-1.81A2.07,2.07,0,0,0,180.16,8.06Z" style="fill:#eb7900"/><path d="M187.58,16.24A1.09,1.09,0,0,1,186.34,15V7.68c0-.82.39-1.23,1.18-1.23s1.18.41,1.18,1.23v.6a3.21,3.21,0,0,1,3-1.86c.55-.07.86.25.93,1s-.27,1.06-1,1.14l-.43,0A2.26,2.26,0,0,0,188.8,11v4A1.09,1.09,0,0,1,187.58,16.24Z" style="fill:#eb7900"/><path d="M198.82,16.28q-3.76,0-3.76-3.72V8.43h-1c-.64,0-1-.3-1-.91s.33-.91,1-.91h1V4.85a1.21,1.21,0,1,1,2.42,0V6.61h2.06c.64,0,1,.3,1,.91s-.33.91-1,.91h-2.06v4a2.09,2.09,0,0,0,.41,1.4,1.67,1.67,0,0,0,1.32.46,3.3,3.3,0,0,0,.58,0,3,3,0,0,1,.44-.08.45.45,0,0,1,.39.14,1.05,1.05,0,0,1,.16.67,1.84,1.84,0,0,1-.13.69.74.74,0,0,1-.46.42,4.42,4.42,0,0,1-.65.14A4,4,0,0,1,198.82,16.28Z" style="fill:#eb7900"/><path d="M203.43,16.18a1.42,1.42,0,0,1-1.06-.4,1.47,1.47,0,0,1-.39-1,1.41,1.41,0,0,1,.39-1,1.46,1.46,0,0,1,1.06-.39,1.31,1.31,0,0,1,1.43,1.41,1.5,1.5,0,0,1-.37,1A1.39,1.39,0,0,1,203.43,16.18Z" style="fill:#eb7900"/><path d="M208.27,4.67a1.49,1.49,0,0,1-1.05-.34,1.2,1.2,0,0,1-.38-.94,1.21,1.21,0,0,1,.38-1,1.54,1.54,0,0,1,1.05-.33c1,0,1.44.43,1.44,1.28S209.23,4.67,208.27,4.67Zm0,11.55a1.12,1.12,0,0,1-.89-.35,1.43,1.43,0,0,1-.31-1V7.79q0-1.32,1.2-1.32t1.23,1.32V14.9a1.43,1.43,0,0,1-.31,1A1.14,1.14,0,0,1,208.27,16.22Z" style="fill:#eb7900"/><path d="M213.22,16.24A1.08,1.08,0,0,1,212,15V7.68a1.07,1.07,0,0,1,1.19-1.23c.78,0,1.18.41,1.18,1.23v.4a3.26,3.26,0,0,1,1.31-1.24,4,4,0,0,1,1.85-.42c2.23,0,3.35,1.29,3.35,3.89V15a1.21,1.21,0,1,1-2.42,0V10.43a2.48,2.48,0,0,0-.42-1.61,1.57,1.57,0,0,0-1.29-.51,2.23,2.23,0,0,0-1.69.67,2.5,2.5,0,0,0-.63,1.78V15A1.09,1.09,0,0,1,213.22,16.24Z" style="fill:#eb7900"/><path d="M34.6,27.72a3.83,3.83,0,0,1-2-.49,3.25,3.25,0,0,1-1.28-1.41,5.55,5.55,0,0,1,0-4.33,3.25,3.25,0,0,1,1.28-1.41,3.83,3.83,0,0,1,2-.49,4.16,4.16,0,0,1,1.33.2,3.64,3.64,0,0,1,1.09.57.48.48,0,0,1,.22.32.44.44,0,0,1-.06.32.44.44,0,0,1-.26.18.42.42,0,0,1-.36-.11,3,3,0,0,0-1.94-.64,2.49,2.49,0,0,0-2,.85,3.53,3.53,0,0,0-.71,2.37A3.54,3.54,0,0,0,32.58,26a2.49,2.49,0,0,0,2,.85,3,3,0,0,0,2-.66.51.51,0,0,1,.37-.1.36.36,0,0,1,.24.17.46.46,0,0,1,.07.31.5.5,0,0,1-.19.3,3.48,3.48,0,0,1-1.12.61A4.24,4.24,0,0,1,34.6,27.72Z" style="fill:#fff"/><path d="M40.5,27.72a2.59,2.59,0,0,1-1.39-.35,2.31,2.31,0,0,1-.9-1,3.7,3.7,0,0,1,0-3,2.31,2.31,0,0,1,.9-1,2.9,2.9,0,0,1,2.76,0,2.35,2.35,0,0,1,.92,1,3.7,3.7,0,0,1,0,3,2.35,2.35,0,0,1-.92,1A2.56,2.56,0,0,1,40.5,27.72Zm0-.73a1.49,1.49,0,0,0,1.22-.55,2.31,2.31,0,0,0,.46-1.55,2.34,2.34,0,0,0-.46-1.57,1.66,1.66,0,0,0-2.45,0,2.34,2.34,0,0,0-.46,1.57,2.31,2.31,0,0,0,.46,1.55A1.49,1.49,0,0,0,40.5,27Z" style="fill:#fff"/><path d="M44.93,27.7c-.3,0-.45-.16-.45-.47v-4.7a.45.45,0,1,1,.89,0v.56a1.74,1.74,0,0,1,.76-.78,2.4,2.4,0,0,1,1.12-.26c1.29,0,1.94.72,1.94,2.16v3c0,.31-.15.47-.45.47a.41.41,0,0,1-.46-.47v-3a1.71,1.71,0,0,0-.3-1.12,1.16,1.16,0,0,0-.95-.36,1.6,1.6,0,0,0-1.2.47,1.76,1.76,0,0,0-.44,1.24v2.73A.41.41,0,0,1,44.93,27.7Z" style="fill:#fff"/><path d="M52.71,27.72a3.94,3.94,0,0,1-1-.13,2.9,2.9,0,0,1-1-.42.34.34,0,0,1-.2-.32.36.36,0,0,1,.15-.31.35.35,0,0,1,.37,0,3.48,3.48,0,0,0,.85.38,3.29,3.29,0,0,0,.82.1,1.6,1.6,0,0,0,1-.23.75.75,0,0,0,.33-.64.66.66,0,0,0-.21-.51,1.67,1.67,0,0,0-.68-.28l-1-.23c-.93-.2-1.4-.68-1.4-1.44a1.44,1.44,0,0,1,.59-1.19,2.5,2.5,0,0,1,1.55-.45,3.22,3.22,0,0,1,.93.13,2.38,2.38,0,0,1,.81.41.33.33,0,0,1,.17.33.4.4,0,0,1-.17.3.32.32,0,0,1-.37,0,2.51,2.51,0,0,0-.68-.33,2.12,2.12,0,0,0-.69-.11,1.55,1.55,0,0,0-1,.25.78.78,0,0,0-.32.65c0,.42.28.69.83.81l1,.21a2.4,2.4,0,0,1,1.1.5,1.23,1.23,0,0,1,.37.93,1.4,1.4,0,0,1-.6,1.19A2.65,2.65,0,0,1,52.71,27.72Z" style="fill:#fff"/><path d="M58.42,27.72A1.9,1.9,0,0,1,57,27.21a2,2,0,0,1-.49-1.48V22.86h-.75c-.26,0-.4-.12-.4-.36s.14-.35.4-.35h.75V20.86a.41.41,0,0,1,.46-.46.4.4,0,0,1,.45.46v1.29h1.42c.26,0,.39.12.39.35s-.13.36-.39.36H57.39v2.78a1.5,1.5,0,0,0,.27,1,1.09,1.09,0,0,0,.88.34,1.25,1.25,0,0,0,.36-.05.87.87,0,0,1,.26,0,.18.18,0,0,1,.17.06.48.48,0,0,1,.07.27.7.7,0,0,1,0,.25.31.31,0,0,1-.18.16,2,2,0,0,1-.35.08A2,2,0,0,1,58.42,27.72Z" style="fill:#fff"/><path d="M60.62,27.7a.41.41,0,0,1-.46-.47v-4.7a.45.45,0,1,1,.89,0v.6a1.64,1.64,0,0,1,.7-.79,2.22,2.22,0,0,1,1.12-.3c.24,0,.37.1.38.36s-.11.41-.4.44l-.18,0a1.81,1.81,0,0,0-1.18.49,1.6,1.6,0,0,0-.41,1.15v2.73A.41.41,0,0,1,60.62,27.7Z" style="fill:#fff"/><path d="M66.12,27.72c-1.31,0-2-.72-2-2.17v-3a.4.4,0,0,1,.45-.46.42.42,0,0,1,.47.46v3a1.62,1.62,0,0,0,.29,1.08,1.19,1.19,0,0,0,.94.35,1.49,1.49,0,0,0,1.14-.47,1.74,1.74,0,0,0,.44-1.24V22.53a.46.46,0,1,1,.91,0v4.7c0,.31-.15.47-.44.47s-.45-.16-.45-.47V26.7a1.79,1.79,0,0,1-.73.76A2.15,2.15,0,0,1,66.12,27.72Z" style="fill:#fff"/><path d="M72.82,27.72a2.79,2.79,0,0,1-1.42-.35,2.41,2.41,0,0,1-.92-1,3.47,3.47,0,0,1-.32-1.52,2.87,2.87,0,0,1,.71-2.05,2.55,2.55,0,0,1,1.95-.75,2.82,2.82,0,0,1,.84.13,2.46,2.46,0,0,1,.8.42.34.34,0,0,1,.16.34.39.39,0,0,1-.19.3.32.32,0,0,1-.38,0,2,2,0,0,0-.6-.32,2,2,0,0,0-.58-.09,1.61,1.61,0,0,0-1.31.54,2.26,2.26,0,0,0-.46,1.53,2.37,2.37,0,0,0,.46,1.55,1.57,1.57,0,0,0,1.31.57,2,2,0,0,0,.58-.09,2,2,0,0,0,.6-.32.34.34,0,0,1,.38,0,.42.42,0,0,1,.17.31.34.34,0,0,1-.16.33,2.32,2.32,0,0,1-.79.42A2.76,2.76,0,0,1,72.82,27.72Z" style="fill:#fff"/><path d="M77.9,27.72a1.91,1.91,0,0,1-1.45-.51A2.08,2.08,0,0,1,76,25.73V22.86h-.76q-.39,0-.39-.36c0-.23.13-.35.39-.35H76V20.86a.46.46,0,1,1,.91,0v1.29h1.41c.27,0,.4.12.4.35s-.13.36-.4.36H76.88v2.78a1.5,1.5,0,0,0,.27,1A1.06,1.06,0,0,0,78,27a1.15,1.15,0,0,0,.36-.05.92.92,0,0,1,.26,0,.18.18,0,0,1,.17.06.41.41,0,0,1,.07.27.7.7,0,0,1,0,.25.26.26,0,0,1-.18.16,1.84,1.84,0,0,1-.35.08A2,2,0,0,1,77.9,27.72Z" style="fill:#fff"/><path d="M80.16,20.84c-.4,0-.59-.19-.59-.57s.19-.55.59-.55.6.19.6.55S80.56,20.84,80.16,20.84Zm0,6.84c-.3,0-.45-.17-.45-.5v-4.6q0-.48.45-.48c.31,0,.46.16.46.48v4.6C80.62,27.51,80.47,27.68,80.16,27.68Z" style="fill:#fff"/><path d="M84.59,27.72a2.58,2.58,0,0,1-1.38-.35,2.31,2.31,0,0,1-.9-1,3.6,3.6,0,0,1,0-3,2.31,2.31,0,0,1,.9-1,2.9,2.9,0,0,1,2.76,0,2.27,2.27,0,0,1,.91,1,3.7,3.7,0,0,1,0,3,2.27,2.27,0,0,1-.91,1A2.58,2.58,0,0,1,84.59,27.72Zm0-.73a1.52,1.52,0,0,0,1.23-.55,2.31,2.31,0,0,0,.46-1.55,2.34,2.34,0,0,0-.46-1.57,1.67,1.67,0,0,0-2.46,0,2.39,2.39,0,0,0-.45,1.57,2.37,2.37,0,0,0,.45,1.55A1.52,1.52,0,0,0,84.59,27Z" style="fill:#fff"/><path d="M89,27.7c-.3,0-.45-.16-.45-.47v-4.7c0-.3.14-.46.44-.46a.4.4,0,0,1,.45.46v.56a1.74,1.74,0,0,1,.76-.78,2.39,2.39,0,0,1,1.11-.26q1.95,0,2,2.16v3c0,.31-.15.47-.45.47a.41.41,0,0,1-.46-.47v-3a1.71,1.71,0,0,0-.3-1.12,1.17,1.17,0,0,0-1-.36,1.6,1.6,0,0,0-1.2.47,1.76,1.76,0,0,0-.44,1.24v2.73A.42.42,0,0,1,89,27.7Z" style="fill:#fff"/><path d="M98.44,27.7a.39.39,0,0,1-.43-.45V20.06a.39.39,0,0,1,.43-.45.5.5,0,0,1,.29.07.66.66,0,0,1,.2.25l2.91,5.48,2.9-5.48a.77.77,0,0,1,.19-.25.51.51,0,0,1,.3-.07c.27,0,.41.15.41.45v7.19c0,.3-.14.45-.43.45s-.42-.15-.42-.45V21.42l-2.55,4.78a.53.53,0,0,1-.16.21.4.4,0,0,1-.24.06.44.44,0,0,1-.25-.06.72.72,0,0,1-.16-.21l-2.57-4.77v5.82Q98.86,27.7,98.44,27.7Z" style="fill:#fff"/><path d="M109.21,27.72a2.21,2.21,0,0,1-1-.22,1.72,1.72,0,0,1-.7-.6,1.53,1.53,0,0,1-.26-.86,1.35,1.35,0,0,1,.31-.94,1.88,1.88,0,0,1,1-.5,10,10,0,0,1,2-.15h.36V24.1a1.47,1.47,0,0,0-.28-1,1.23,1.23,0,0,0-.92-.31,3.56,3.56,0,0,0-.79.1,4,4,0,0,0-.83.33.35.35,0,0,1-.32,0,.32.32,0,0,1-.18-.2.51.51,0,0,1,0-.3.41.41,0,0,1,.22-.23,4.77,4.77,0,0,1,1-.36,4.52,4.52,0,0,1,.93-.11,2.09,2.09,0,0,1,1.57.52,2.21,2.21,0,0,1,.51,1.61v3.05c0,.31-.14.47-.42.47s-.43-.16-.43-.47v-.56a1.71,1.71,0,0,1-.66.77A1.88,1.88,0,0,1,109.21,27.72Zm.14-.68a1.46,1.46,0,0,0,1.11-.47,1.71,1.71,0,0,0,.42-1.19V25h-.34a9,9,0,0,0-1.44.09,1.28,1.28,0,0,0-.73.29.77.77,0,0,0-.21.57,1,1,0,0,0,.32.75A1.24,1.24,0,0,0,109.35,27Z" style="fill:#fff"/><path d="M115.53,27.72a2.28,2.28,0,0,1-1.28-.35,2.31,2.31,0,0,1-.84-1,4,4,0,0,1,0-3,2.31,2.31,0,0,1,.84-1,2.44,2.44,0,0,1,1.28-.34,2.18,2.18,0,0,1,1.13.28,1.77,1.77,0,0,1,.73.78v-3a.46.46,0,1,1,.91,0v7.16c0,.31-.15.47-.45.47s-.45-.16-.45-.47v-.59a1.82,1.82,0,0,1-.74.79A2.09,2.09,0,0,1,115.53,27.72Zm.19-.73a1.52,1.52,0,0,0,1.23-.55,2.31,2.31,0,0,0,.46-1.55,2.34,2.34,0,0,0-.46-1.57,1.54,1.54,0,0,0-1.23-.54,1.52,1.52,0,0,0-1.23.54,2.39,2.39,0,0,0-.46,1.57,2.37,2.37,0,0,0,.46,1.55A1.49,1.49,0,0,0,115.72,27Z" style="fill:#fff"/><path d="M122.47,27.72a2.61,2.61,0,0,1-2.8-2.82,3.09,3.09,0,0,1,.34-1.49,2.37,2.37,0,0,1,.93-1,2.56,2.56,0,0,1,1.36-.36,2.21,2.21,0,0,1,1.75.72,2.85,2.85,0,0,1,.63,2c0,.23-.13.35-.4.35h-3.72a2.07,2.07,0,0,0,.54,1.42,1.85,1.85,0,0,0,1.37.49,2.89,2.89,0,0,0,.76-.1,2.14,2.14,0,0,0,.74-.34.42.42,0,0,1,.43-.07.33.33,0,0,1,.18.31.44.44,0,0,1-.23.37,2.87,2.87,0,0,1-.88.42A4,4,0,0,1,122.47,27.72Zm-.14-5a1.6,1.6,0,0,0-1.23.48,2.1,2.1,0,0,0-.53,1.27h3.32a2.07,2.07,0,0,0-.43-1.29A1.42,1.42,0,0,0,122.33,22.73Z" style="fill:#fff"/><path d="M129.52,27.62a.45.45,0,0,1-.5-.51V20.19a.44.44,0,0,1,.5-.5h4.19a.34.34,0,0,1,.39.38.35.35,0,0,1-.39.4h-3.79v2.74h3.55c.27,0,.4.13.4.38a.35.35,0,0,1-.4.4h-3.55v2.85h3.79a.39.39,0,0,1,0,.78Z" style="fill:#fff"/><path d="M137.08,27.72a2.16,2.16,0,0,1-1-.22,1.81,1.81,0,0,1-.71-.6,1.52,1.52,0,0,1-.25-.86,1.35,1.35,0,0,1,.31-.94,1.81,1.81,0,0,1,1-.5,10,10,0,0,1,2-.15h.36V24.1a1.42,1.42,0,0,0-.29-1,1.2,1.2,0,0,0-.91-.31,3.73,3.73,0,0,0-.8.1,3.91,3.91,0,0,0-.82.33.35.35,0,0,1-.32,0,.32.32,0,0,1-.18-.2.39.39,0,0,1,0-.3.38.38,0,0,1,.22-.23,4.16,4.16,0,0,1,1.9-.47,2.11,2.11,0,0,1,1.57.52,2.21,2.21,0,0,1,.51,1.61v3.05c0,.31-.14.47-.42.47s-.44-.16-.44-.47v-.56a1.69,1.69,0,0,1-.65.77A1.92,1.92,0,0,1,137.08,27.72Zm.15-.68a1.42,1.42,0,0,0,1.1-.47,1.67,1.67,0,0,0,.43-1.19V25h-.35a8.83,8.83,0,0,0-1.43.09,1.28,1.28,0,0,0-.73.29A.77.77,0,0,0,136,26a1,1,0,0,0,.32.75A1.21,1.21,0,0,0,137.23,27Z" style="fill:#fff"/><path d="M143.17,27.72a4,4,0,0,1-1-.13,3.1,3.1,0,0,1-1-.42.34.34,0,0,1-.19-.32.36.36,0,0,1,.15-.31.35.35,0,0,1,.37,0,3.32,3.32,0,0,0,.85.38,3.21,3.21,0,0,0,.81.1,1.64,1.64,0,0,0,1-.23.75.75,0,0,0,.33-.64.64.64,0,0,0-.22-.51,1.56,1.56,0,0,0-.67-.28l-1-.23c-.94-.2-1.4-.68-1.4-1.44a1.44,1.44,0,0,1,.59-1.19,2.48,2.48,0,0,1,1.55-.45,3.22,3.22,0,0,1,.93.13,2.38,2.38,0,0,1,.81.41.35.35,0,0,1,.17.33.44.44,0,0,1-.17.3.32.32,0,0,1-.37,0,2.56,2.56,0,0,0-.69-.33,2.06,2.06,0,0,0-.68-.11,1.55,1.55,0,0,0-1,.25.76.76,0,0,0-.32.65c0,.42.27.69.83.81l1,.21a2.35,2.35,0,0,1,1.09.5,1.2,1.2,0,0,1,.37.93,1.41,1.41,0,0,1-.59,1.19A2.65,2.65,0,0,1,143.17,27.72Z" style="fill:#fff"/><path d="M147.84,29.72a.35.35,0,0,1-.35-.19.54.54,0,0,1,0-.45l.69-1.55-2.07-4.82a.46.46,0,0,1,0-.44.43.43,0,0,1,.41-.2.48.48,0,0,1,.46.36l1.7,4.15,1.71-4.15a1,1,0,0,1,.19-.28.51.51,0,0,1,.3-.08.34.34,0,0,1,.34.2.5.5,0,0,1,0,.43l-2.88,6.66a.65.65,0,0,1-.19.28A.45.45,0,0,1,147.84,29.72Z" style="fill:#fff"/><path d="M10.91,12.49a.4.4,0,0,1,.15-.45.42.42,0,0,0,.22-.32l.27.55-.16.39c-.22.87-.35,1.19-.43,1.18S10.86,13.45,10.91,12.49Z" style="fill:#e4c990"/><path d="M17.94,31.16a3,3,0,0,1-.68.36,9,9,0,0,1-1.78.46c-.42.08-.85.12-1.28.17-.68.07-1.36.08-2,.11s-1.27,0-1.91,0A13.43,13.43,0,0,1,8.35,32a7.83,7.83,0,0,1-2.58-.72,1.27,1.27,0,0,1-.33-.24.48.48,0,0,1,.08-.76,4.09,4.09,0,0,1,1.32-.58c.36-.1.72-.17,1.08-.24a7.61,7.61,0,0,1,1.25-.15L9,29.51a1.92,1.92,0,0,1-1,.68.35.35,0,0,0-.25.22c-.06.11,0,.18.09.22a1.37,1.37,0,0,0,1.1.08,7.59,7.59,0,0,1,.78-.33,2.15,2.15,0,0,1,.56-.07c.3,0,.38-.08.37-.38a4.11,4.11,0,0,0-.08-.6s-.06-.09,0-.09a3.69,3.69,0,0,1,.58,0c.58,0,1.16,0,1.73,0a1.39,1.39,0,0,0,.26.1c0,.19-.08.36-.09.54a1.36,1.36,0,0,0,0,.2c0,.28.06.37.34.37a2.46,2.46,0,0,1,1.21.38,1.43,1.43,0,0,0,1.09.08c.1,0,.2-.06.24-.17s0-.15-.05-.2a.57.57,0,0,0-.28-.18,1.62,1.62,0,0,1-.9-.64l-.08-.07-.22-.25s.08,0,.13-.06c.42.07.85.12,1.27.21a6.6,6.6,0,0,1,1.89.59,1.28,1.28,0,0,1,.43.37A.48.48,0,0,1,17.94,31.16Z" style="fill:#d8d8d8"/><path d="M9.17,1.1a.07.07,0,0,1,0-.06,3.83,3.83,0,0,1,3.26.07,3.82,3.82,0,0,0-.26.54,8.89,8.89,0,0,0-.37,2c-.06.67-.07,1.35-.11,2-.35,0-.7-.06-1.05,0l-.8,0c-.21,0-.21,0-.21-.22a16.84,16.84,0,0,0,0-1.74c-.06-.52-.11-1-.21-1.54A8.28,8.28,0,0,0,9.17,1.1Z" style="fill:#fdcd01"/><path d="M9.17,1.1a8.28,8.28,0,0,1,.25,1c.1.51.15,1,.21,1.54a16.84,16.84,0,0,1,0,1.74c0,.22,0,.22.21.22l.8,0c.35,0,.7,0,1.05,0H12a.09.09,0,0,0,.1-.1c0-.29,0-.57.07-.86s0-.58.08-.87.1-.87.18-1.29a2.86,2.86,0,0,1,.28-.9.57.57,0,0,1,.19.1A5.71,5.71,0,0,0,12.52,3a7.34,7.34,0,0,0-.15,1.55.91.91,0,0,0,.37.73,2.54,2.54,0,0,0,1.4.53.48.48,0,0,1,.23.07.28.28,0,0,1,0,.2A1.6,1.6,0,0,1,13.9,6a.3.3,0,0,0-.21,0,5.77,5.77,0,0,1-.9.26,6.6,6.6,0,0,1-1.39.22,9.43,9.43,0,0,1-1.3,0A6.85,6.85,0,0,1,8.26,6a.78.78,0,0,0-.58-.08,1.1,1.1,0,0,1-.31,0,5,5,0,0,1,0-2.55c.06,0,.07.11.1.17A5.18,5.18,0,0,0,8.52,5c.14.12.3.27.5.17s.2-.3.21-.49a8.35,8.35,0,0,0-.25-2c-.06-.31-.14-.62-.22-.93a.51.51,0,0,0,.37-.5A.25.25,0,0,1,9.17,1.1Z" style="fill:#fc970a"/><path d="M8.7,12.4c0,.47,0,.93,0,1.39s0,.65,0,1a1,1,0,0,0,0,.25v1.33c0,.13,0,.19-.17.19-.81,0-1.62,0-2.43-.05l-1.53,0c-.12,0-.12,0-.11-.1s.05.05.1,0a2.09,2.09,0,0,1,.16-.29,3,3,0,0,0,.48-.64,2.58,2.58,0,0,1,.48,0H7.25c.2,0,.39,0,.58,0s.13,0,.13-.11-.06-.09-.12-.09l-1.46,0h-1a.41.41,0,0,1,.1-.27,1.41,1.41,0,0,0,.33-.5h.1l1.92,0c.12,0,.16,0,.16-.16,0-.38,0-.75,0-1.12,0-.52,0-1,0-1.56v-.14a4,4,0,0,0,.67-.9s.05,0,.05.07C8.68,11.28,8.7,11.84,8.7,12.4ZM7.35,15.76H6.83s-.1,0-.1.08,0,.08.09.09c.33,0,.67,0,1,0,.09,0,.11-.06.12-.12s-.06-.08-.12-.08Z" style="fill:#f6dea7"/><path d="M15.92,30.74c0,.11-.14.14-.24.17a1.43,1.43,0,0,1-1.09-.08,2.46,2.46,0,0,0-1.21-.38c-.28,0-.35-.09-.34-.37a1.36,1.36,0,0,1,0-.2c0-.18.09-.35.09-.54a1.39,1.39,0,0,1-.26-.1l-1.14-5.95-.48-2.52a.62.62,0,0,0-.07-.23c0,.17,0,.34,0,.51l-.39,7.83c0,.16,0,.31-.2.36s0,.07,0,.09a4.11,4.11,0,0,1,.08.6c0,.3-.07.38-.37.38a2.15,2.15,0,0,0-.56.07,7.59,7.59,0,0,0-.78.33,1.37,1.37,0,0,1-1.1-.08c-.08,0-.15-.11-.09-.22A.35.35,0,0,1,8,30.19a1.92,1.92,0,0,0,1-.68l.14-.16.2-.17c-.11-.1-.08-.23-.08-.35L9.41,21l0-1.29v0a1.34,1.34,0,0,0,0-.2v-.07a.67.67,0,0,1,0-.2,4.17,4.17,0,0,1,0-.5.25.25,0,0,1,.17.06,2.52,2.52,0,0,0,.68.33c.14.05.18,0,.19-.12a1.85,1.85,0,0,1,.13-.54c.12.27.22.52.32.76a.11.11,0,0,0,.1.08,2.75,2.75,0,0,0,.41,0l.07,0h0l1.86-.7.07,0s0,.13,0,.22a8.83,8.83,0,0,0,.33,3.11l.51,5c.08.79.17,1.58.25,2.37v.12s-.1,0-.13.06l.22.25.08.07a1.62,1.62,0,0,0,.9.64.57.57,0,0,1,.28.18C15.92,30.59,16,30.66,15.92,30.74Z"/><path d="M13.4,18.56l-1.86.7,0,0A15.89,15.89,0,0,1,13.4,18.56Z"/><path d="M14.37,5.88a.48.48,0,0,0-.23-.07,2.54,2.54,0,0,1-1.4-.53.91.91,0,0,1-.37-.73A7.34,7.34,0,0,1,12.52,3a5.71,5.71,0,0,1,.35-1.27A2.57,2.57,0,0,1,14.15,3,4.49,4.49,0,0,1,14.37,5.88Z" style="fill:#fdaf14"/><path d="M5.13,15.43a3,3,0,0,1-.48.64,2.09,2.09,0,0,0-.16.29c0,.05-.07,0-.1,0,0-1,0-2,0-3.07,0-.06,0-.13,0-.2s.24,0,.21-.2l0-.14c.11,0,.12-.13.1-.23l-.13-.16c.2-.06.24-.16.13-.34s-.1,0-.09-.13c.16,0,.19-.13.13-.27a.54.54,0,0,0-.27-.2c0-.25,0-.5,0-.75,0-.08,0-.09.1-.09.74,0,1.47,0,2.21,0h.65a11.16,11.16,0,0,1,1.16,0h.08a4,4,0,0,1-.67.9.86.86,0,0,1,0-.16c0-.13,0-.19-.17-.17s-.22,0-.33,0c-.73,0-1.47,0-2.21,0-.1,0-.13,0-.13.14,0,.28,0,.56,0,.84,0,.74,0,1.48,0,2.22,0,.11,0,.14.15.14h.55a1.41,1.41,0,0,1-.33.5.41.41,0,0,0-.1.27c-.08,0-.17-.08-.25,0A.13.13,0,0,0,5.13,15.43Z" style="fill:#f4d697"/><path d="M8.76,1.71c.08.31.16.62.22.93a8.35,8.35,0,0,1,.25,2c0,.19,0,.4-.21.49s-.36,0-.5-.17a5.18,5.18,0,0,1-1-1.38c0-.06,0-.13-.1-.17A2.56,2.56,0,0,1,8.76,1.71Z" style="fill:#fdaf14"/><path d="M13.65,6.36c-.28.07-.57.13-.85.21a10.07,10.07,0,0,1-1.1.17,8.24,8.24,0,0,1-1.11,0A7,7,0,0,1,9,6.56H8.87L8,6.28c0,.35.08.69.11,1a2,2,0,0,0,0,.23c-.1,0-.18-.06-.27,0s.16.25.14.41a.33.33,0,0,1,.21.37,1.29,1.29,0,0,0-.51-.37c-.14.13-.06.27,0,.39a3.49,3.49,0,0,0,.39.49c.14.19.14.23-.07.31.05,0,.09.08.14.08s.19.12.19.25a.5.5,0,0,0,.19.38c.37.31.75.62,1.14.91.09.11.24.15.31.29s0,.14,0,.2c0-.16.05-.19.22-.17.34,0,.69,0,1,0a.34.34,0,0,0,.28-.11.32.32,0,0,0,.14-.08,3.55,3.55,0,0,1,.47-.32,4.58,4.58,0,0,1,.42-.35l0,0v0h0a.9.9,0,0,0,.59-.77.07.07,0,0,1,.06-.08.26.26,0,0,1,0-.21c.05-.19.05-.4.1-.59l0,0v0a.47.47,0,0,1,0-.24,1.46,1.46,0,0,1,.07-.51l.15-1A.65.65,0,0,0,13.65,6.36Zm-4.89.79v0a.84.84,0,0,1,.7-.28A1,1,0,0,1,10,7c.13,0,.08.14.05.22s-.07.17-.2.11L9.5,7.18A2.61,2.61,0,0,0,8.76,7.15Zm.59.41c.1-.21.29-.23.42,0a1.15,1.15,0,0,1,0,1,.22.22,0,0,1-.4-.05A.86.86,0,0,1,9.24,8,.7.7,0,0,1,9.35,7.56ZM11,10.42a.91.91,0,0,1-.61,0,.1.1,0,0,1,0,0,.1.1,0,0,1,0-.06,4.05,4.05,0,0,0,.69,0s.08,0,.07,0S11.07,10.4,11,10.42Zm1.14-1a.29.29,0,0,0-.1.08l-.15,0a1.33,1.33,0,0,1-.49.56.21.21,0,0,1-.17.05c-.06.1-.17.09-.26.1a1.16,1.16,0,0,1-.88-.23,1,1,0,0,1-.53-.65,0,0,0,0,1,0,0c-.1,0-.17-.12-.28-.13l-.06-.1h0s0,0,0-.07c.37.05.73.12,1.1.2.07,0,.16.07.2-.06A1.43,1.43,0,0,1,10.26,9a.21.21,0,0,1-.06-.18h0a1.54,1.54,0,0,1,0-.17c0-.08.05-.2.11-.23s.12.09.18.14a.42.42,0,0,0,.49,0c.18-.13.18-.13.24.08a1.15,1.15,0,0,0,.06.17c.07.08,0,.14,0,.19a.61.61,0,0,1-.4.21c0,.11.05.14.17.12l1-.14c.06,0,.13,0,.15.06s.09.08.08.1S12.27,9.34,12.18,9.4Zm.05-.84c-.13.21-.3.2-.43,0a1.2,1.2,0,0,1,0-1c.13-.18.29-.17.4,0a.67.67,0,0,1,.1.47A.77.77,0,0,1,12.23,8.56ZM12.7,10l0,0h0l0,0,0,0h0ZM12,7.22c-.11,0-.22.06-.33.11s-.18,0-.22-.12,0-.19.09-.23a1,1,0,0,1,.48-.1.79.79,0,0,1,.73.32A2.35,2.35,0,0,0,12,7.22Z" style="fill:#ca7f5d"/><path d="M14.33,6.08a0,0,0,0,1,0,0,5.54,5.54,0,0,0-.68.25c-.28.07-.57.13-.85.21a10.07,10.07,0,0,1-1.1.17,8.24,8.24,0,0,1-1.11,0A7,7,0,0,1,9,6.56H8.87L8,6.28,7.39,6s0,0,0-.06a1.1,1.1,0,0,0,.31,0A.78.78,0,0,1,8.26,6a6.85,6.85,0,0,0,1.84.43,9.43,9.43,0,0,0,1.3,0,7.42,7.42,0,0,0,1.39-.21,7.15,7.15,0,0,0,.9-.27.3.3,0,0,1,.21,0A1.6,1.6,0,0,0,14.33,6.08Z" style="fill:#fdaf14"/><path d="M12.68,1.63a2.86,2.86,0,0,0-.28.9c-.08.42-.13.86-.18,1.29s-.06.58-.08.87-.05.57-.07.86a.09.09,0,0,1-.1.1h-.24c0-.67,0-1.35.11-2a8.89,8.89,0,0,1,.37-2,3.82,3.82,0,0,1,.26-.54A3.33,3.33,0,0,1,12.68,1.63Z" style="fill:#fdaf14"/><path d="M14.33,6.11a4.66,4.66,0,0,1-.41,1.47l-.08,0a.61.61,0,0,0-.33.1l.15-1a.65.65,0,0,0,0-.31A5.54,5.54,0,0,1,14.33,6.11Z" style="fill:#1a2421"/><path d="M8.1,7.55c-.1,0-.18-.06-.27,0h0a7,7,0,0,1-.39-1.33c0-.06,0-.11,0-.17L8,6.28c0,.35.08.69.11,1A2,2,0,0,0,8.1,7.55Z" style="fill:#1a2421"/><path d="M8,9.11A1.34,1.34,0,0,1,7.43,8a.48.48,0,0,1,.37-.51h0c0,.14.16.25.14.41h-.3c-.14.13-.06.27,0,.39a3.49,3.49,0,0,0,.39.49C8.21,9,8.21,9,8,9.11Z" style="fill:#ca7f5d"/><path d="M13.84,7.61l.08,0a.65.65,0,0,1,.29.79,1.33,1.33,0,0,1-.54.81s0,0,0,0h0c-.2-.08-.21-.13-.07-.29s.22-.23.32-.35.26-.29.14-.51c-.1-.07-.21,0-.33,0a.6.6,0,0,1,.06-.23C13.78,7.73,13.87,7.7,13.84,7.61Z" style="fill:#ca7f5d"/><path d="M13.57,8.9c-.14.16-.13.21.07.29a.26.26,0,0,1-.22.1l-.05,0H13.3a.26.26,0,0,1,0-.21c.05-.19.05-.4.1-.59l0,0v0c.06,0,.08-.07.11-.1A.84.84,0,0,1,14,8c.11.22,0,.36-.14.51S13.68,8.79,13.57,8.9Z" style="fill:#b96345"/><path d="M15.55,14.85a.35.35,0,0,1-.24.28,1.31,1.31,0,0,1-.83,0,.85.85,0,0,0,.69-.6,5.61,5.61,0,0,0,.3-.93,3.38,3.38,0,0,1,.09.84A1.28,1.28,0,0,1,15.55,14.85Z" style="fill:#27292b"/><path d="M4.46,11.42a.54.54,0,0,1,.27.2.57.57,0,0,1-.61.1C4.08,11.5,4.18,11.41,4.46,11.42Z" style="fill:#ca7f5d"/><path d="M4.6,11.89c0,.08.08.07.09.13a.32.32,0,0,1-.4.15c-.06,0-.14-.08-.18,0a.21.21,0,0,1,.09-.28A1.35,1.35,0,0,0,4.6,11.89Z" style="fill:#ca7f5d"/><path d="M4.11,12.2c0-.11.12,0,.18,0a.32.32,0,0,0,.4-.15c.11.18.07.28-.13.34a.56.56,0,0,1-.36,0A.32.32,0,0,1,4.11,12.2Z" style="fill:#b96345"/><path d="M4.2,12.35a.56.56,0,0,0,.36,0l.13.16a.57.57,0,0,1-.44.1s-.09,0-.1,0C4.08,12.54,4.14,12.45,4.2,12.35Z" style="fill:#ca7f5d"/><path d="M4.6,11.89a1.35,1.35,0,0,1-.4,0c0-.07-.1-.11-.08-.2a.57.57,0,0,0,.61-.1C4.79,11.76,4.76,11.85,4.6,11.89Z" style="fill:#b96345"/><path d="M4.15,12.66c0-.07.06,0,.1,0a.57.57,0,0,0,.44-.1c0,.1,0,.19-.1.23a.92.92,0,0,1-.37,0Z" style="fill:#b96345"/><path d="M4.22,12.79a.92.92,0,0,0,.37,0l0,.14c-.15.07-.29.14-.45,0A.09.09,0,0,1,4.22,12.79Z" style="fill:#ca7f5d"/><path d="M4.18,12.92c.16.11.3,0,.45,0,0,.17-.09.18-.21.2S4.19,13.09,4.18,12.92Z" style="fill:#b96345"/><path d="M13.37,9.31l.05,0Z" style="fill:#ca7f5d"/><path d="M13.64,9.19s0,0,0,0h0Z" style="fill:#b96345"/><path d="M12.65,10.16l0,0h0v0h0Z" style="fill:#ca7f5d"/><path d="M8.64,10.65H8.59S8.62,10.63,8.64,10.65Z" style="fill:#f6dea7"/><path d="M10.11,11.79a1.73,1.73,0,0,1,.53-.61c.07,0,.12,0,.17,0a2.07,2.07,0,0,1,.47.51.42.42,0,0,1-.22.32.4.4,0,0,0-.15.45,2.68,2.68,0,0,0,0,.4v.8a10.11,10.11,0,0,1-.42,1,2.81,2.81,0,0,1-.17.35,10.86,10.86,0,0,1-.25-1.6c.11-.41.18-.83.26-1.25a.09.09,0,0,0,0-.11A1.4,1.4,0,0,1,10.11,11.79Z" style="fill:#a50000"/><path d="M10.11,11.79a1.4,1.4,0,0,0,.22.32.09.09,0,0,1,0,.11c-.08.42-.15.84-.26,1.25A9.13,9.13,0,0,1,10,12C10.06,11.94,10.07,11.85,10.11,11.79Z" style="fill:#e4c990"/><path d="M10.35,15.23a15.26,15.26,0,0,0,.23,2.86A5.76,5.76,0,0,1,10.35,15.23Z" style="fill:#fff"/><path d="M12.42,9.33a.47.47,0,0,0-.24.07.29.29,0,0,0-.1.08l-.15,0-.27.07,0,0h0A3.33,3.33,0,0,1,9.9,9.49a.91.91,0,0,0-.3-.14h0l0,0c-.1,0-.17-.12-.28-.13l-.06-.1h0l.24.06a6.06,6.06,0,0,0,2.71.08.2.2,0,0,1,.09,0A.23.23,0,0,1,12.42,9.33Z" style="fill:#b96345"/><path d="M12.24,9.27a6.06,6.06,0,0,1-1.69.11l-.78-.16-.3-.08-.16,0-.08,0a.08.08,0,0,1,0-.05l0,0c.37.05.73.12,1.1.2.07,0,.16.07.2-.06l.4,0c0,.11.05.14.17.12l1-.14s.08,0,.12,0a.07.07,0,0,1,0,.06A.07.07,0,0,1,12.24,9.27Z" style="fill:#1a2421"/><path d="M11.37,8.78a.85.85,0,0,1-1.13,0,1.54,1.54,0,0,1,0-.17c0-.08.05-.2.11-.23s.12.09.18.14a.42.42,0,0,0,.49,0c.18-.13.18-.13.24.08A1.15,1.15,0,0,0,11.37,8.78Z" style="fill:#ddbb7d"/><path d="M9.77,7.53c-.13-.2-.32-.18-.42,0A.7.7,0,0,0,9.24,8a.86.86,0,0,0,.09.5.22.22,0,0,0,.4.05A1.15,1.15,0,0,0,9.77,7.53Zm-.08,1c-.09.12-.22.13-.28,0a.61.61,0,0,1,0-.64h0a.14.14,0,0,1,0-.07h0a.16.16,0,0,1,.11,0,.17.17,0,0,1,.16.08A.71.71,0,0,1,9.69,8.52Z" style="fill:#b96345"/><path d="M12.23,7.57c-.11-.2-.27-.21-.4,0a1.2,1.2,0,0,0,0,1c.13.19.3.2.43,0a.77.77,0,0,0,.1-.52A.67.67,0,0,0,12.23,7.57Zm-.1,1a.14.14,0,0,1-.26,0,.61.61,0,0,1,0-.57l.07-.1c.06-.12.15-.14.24,0A.7.7,0,0,1,12.13,8.58Z" style="fill:#b96345"/><path d="M12.79,7.2a2.35,2.35,0,0,0-.75,0c-.11,0-.22.06-.33.11s-.18,0-.22-.12,0-.19.09-.23a1,1,0,0,1,.48-.1A.79.79,0,0,1,12.79,7.2Z" style="fill:#1a2421"/><path d="M11.33,9a.61.61,0,0,1-.4.21l-.4,0A1.43,1.43,0,0,1,10.26,9a.21.21,0,0,1-.06-.18h0a.85.85,0,0,0,1.13,0C11.44,8.86,11.37,8.92,11.33,9Z" style="fill:#b96345"/><path d="M10.07,7.2c0,.08-.07.17-.2.11L9.5,7.18a2.61,2.61,0,0,0-.74,0v0a.84.84,0,0,1,.7-.28A1,1,0,0,1,10,7C10.15,7,10.1,7.12,10.07,7.2Z" style="fill:#1a2421"/><path d="M13.76,7.79A.6.6,0,0,0,13.7,8l-.26.2a1.46,1.46,0,0,1,.07-.51.61.61,0,0,1,.33-.1C13.87,7.7,13.78,7.73,13.76,7.79Z" style="fill:#b96345"/><path d="M14,8a.84.84,0,0,0-.52.32s0,.09-.11.1a.47.47,0,0,1,0-.24L13.7,8C13.82,8,13.93,8,14,8Z" style="fill:#a2271e"/><path d="M12.75,10H12.7l0,0Z" style="fill:#b96345"/><path d="M10.2,8.81h0Z" style="fill:#b96345"/><path d="M12.7,10l0,0h0Z" style="fill:#b96345"/><path d="M5.79,14.49H5.24c-.1,0-.15,0-.15-.14.06-.74,0-1.48,0-2.22,0-.28,0-.56,0-.84,0-.1,0-.15.13-.14.74.07,1.48,0,2.21,0,.11,0,.22,0,.33,0s.18,0,.17.17a.86.86,0,0,0,0,.16v.14c-.11,0-.15.1-.21.17l-.39.56a.11.11,0,0,1-.1-.05c-.2-.27-.47-.46-.67-.72-.06-.08-.1-.08-.17,0l-.4.42-.6.65h0c.17,0,.2,0,.2.21s0,.53,0,.8,0,.39.4.39c0,.15-.18.22-.2.37Z" style="fill:#ddbb7d"/><path d="M5.89,14.49c0-.15.18-.22.2-.37h.07a9.75,9.75,0,0,1,1.08,0c.12,0,.16,0,.16-.16,0-.38,0-.75,0-1.13,0,0,0-.11.06-.11.25,0,.07-.11,0-.16a.41.41,0,0,0-.12-.11v-.07l.39-.56c.06-.07.1-.15.21-.17,0,.52,0,1,0,1.56,0,.37,0,.74,0,1.12,0,.12,0,.16-.16.16Z" style="fill:#e4c990"/><path d="M5.13,15.43a.13.13,0,0,1,0-.18c.08-.07.17,0,.25,0h1l1.46,0c.06,0,.12,0,.12.09s0,.11-.13.11-.38,0-.58,0H5.61A2.58,2.58,0,0,0,5.13,15.43Z" style="fill:#e4c990"/><path d="M7.35,15.76h.48c.06,0,.12,0,.12.08s0,.12-.12.12c-.34,0-.68,0-1,0-.06,0-.09,0-.09-.09s0-.08.1-.08Z" style="fill:#e4c990"/><path d="M13.08,13a.94.94,0,0,1,.68,0A.65.65,0,0,1,13.08,13Z" style="fill:#b96345"/><path d="M13.16,13.79a1.66,1.66,0,0,1,.37.09s.06,0,.06,0a.07.07,0,0,1-.07.06,1.29,1.29,0,0,1-.47-.11s-.05,0,0-.07S13.11,13.8,13.16,13.79Z" style="fill:#b96345"/><path d="M8.18,8.29a1.29,1.29,0,0,0-.51-.37H8A.33.33,0,0,1,8.18,8.29Z" style="fill:#a2271e"/><path d="M11.11,10.36s0,0-.07.06a.91.91,0,0,1-.61,0,.1.1,0,0,1,0,0,.1.1,0,0,1,0-.06,4.05,4.05,0,0,0,.69,0S11.12,10.31,11.11,10.36Z" style="fill:#b96345"/><path d="M11.63,9.62a1,1,0,0,1-.73.31,1.43,1.43,0,0,1,.37.2c-.06.1-.17.09-.26.1a1.16,1.16,0,0,1-.88-.23l.43-.11a1.39,1.39,0,0,1-.66-.4,3.33,3.33,0,0,0,1.74.13Z" style="fill:#fefefe"/><path d="M11.93,9.52a1.33,1.33,0,0,1-.49.56.21.21,0,0,1-.17.05,1.43,1.43,0,0,0-.37-.2,1,1,0,0,0,.73-.31l0,0Z" style="fill:#121324"/><path d="M10.56,9.89l-.43.11a1,1,0,0,1-.53-.65h0a.91.91,0,0,1,.3.14A1.39,1.39,0,0,0,10.56,9.89Z" style="fill:#121324"/><path d="M11.29,9.45a6.69,6.69,0,0,1,.78-.14.07.07,0,0,1,.08,0A4.12,4.12,0,0,1,11.29,9.45Z" style="fill:#bf6e4f"/><path d="M11.66,9.59l0,0Z" style="fill:#fefefe"/><path d="M9.6,9.35a0,0,0,0,1,0,0Z" style="fill:#121324"/><path d="M9.4,7.88a.14.14,0,0,1,.14-.13.17.17,0,0,1,.16.08.71.71,0,0,1,0,.69c-.09.12-.22.13-.28,0a.61.61,0,0,1,0-.64c-.05.16.12.21.16.33h0c.1-.11-.07-.17,0-.26v0C9.54,7.83,9.49,7.81,9.4,7.88Z" style="fill:#121324"/><path d="M11.9,7.88c.06-.12.15-.14.24,0a.7.7,0,0,1,0,.75.14.14,0,0,1-.26,0,.61.61,0,0,1,0-.57c0,.08,0,.15.13.15S12,8.06,12,8,12,7.87,11.9,7.88Z" style="fill:#121324"/><path d="M11.9,7.88c.1,0,.13,0,.12.13s0,.12-.06.12-.11-.07-.13-.15Z" style="fill:#d8d8d8"/><path d="M6.16,14.12H6.09c-.4,0-.4,0-.4-.39s0-.54,0-.8,0-.24-.2-.21h0l.6-.65.4-.42c.07-.08.11-.08.17,0,.2.26.47.45.67.72a.11.11,0,0,0,.1.05v.07c-.1,0-.14.08-.17.14a5.72,5.72,0,0,1-.37.49H6.61c-.35,0-.35,0-.35.36,0,.13,0,.2.17.18C6.39,13.84,6.2,13.94,6.16,14.12Z" style="fill:#f4d697"/><path d="M6.16,14.12c0-.18.23-.28.27-.46h.26c.14,0,.19,0,.17-.18s0-.24,0-.36a5.72,5.72,0,0,0,.37-.49c0-.06.07-.14.17-.14a.41.41,0,0,1,.12.11c0,.05.22.15,0,.16-.07,0-.06.06-.06.11,0,.38,0,.75,0,1.13,0,.12,0,.17-.16.16A9.75,9.75,0,0,0,6.16,14.12Z" style="fill:#f6dea7"/><path d="M9.4,7.88c.09-.07.14,0,.16,0V8c0,.09.14.15,0,.26h0c0-.12-.21-.17-.16-.33Z" style="fill:#d8d8d8"/><path d="M6.53,13.65h-.1c-.14,0-.18-.05-.17-.18,0-.36,0-.36.35-.36h.22c0,.06,0,.1-.06.15S6.55,13.49,6.53,13.65Z" style="fill:#ddbb7d"/><path d="M6.53,13.65c0-.16.16-.25.24-.38s.07-.09.06-.15h0c0,.12,0,.24,0,.36s0,.2-.17.18Z" style="fill:#e4c990"/><path d="M12.15,10.56c-.07.28-.16.57-.27.89s-.22.57-.33.82l-.08-.16c-.1-.2-.2-.39-.29-.53a1.56,1.56,0,0,0-.49-.43,2.2,2.2,0,0,0-.28.22,1.77,1.77,0,0,0-.43.85l-.22-1.4.46.23.48,0h.56Z" style="fill:#d8d8d8"/><path d="M13.9,11.17a3.92,3.92,0,0,0-1.1-.45l-.31-.08-.34-.08c-.26.84-.47,1.39-.6,1.71,0,.07-.1.22-.16.39a9.44,9.44,0,0,1-.45,1h0a10.11,10.11,0,0,1-.42,1,2.81,2.81,0,0,1-.17.35,10.86,10.86,0,0,1-.25-1.6c0-.57,0-.88-.1-1.48a9.25,9.25,0,0,0-.24-1.17,1.07,1.07,0,0,1-.25.34,2.36,2.36,0,0,1-.47.28c-.17.11-.33.35-.34,1s0,.93,0,1.39,0,.65,0,1l.44-.37c0,.14,0,.27,0,.4a5.73,5.73,0,0,1,.07.58,7,7,0,0,1,.23,1.82c0,.34-.07.67-.1,1s-.07.39.12.54a.25.25,0,0,1,.17.06,2.52,2.52,0,0,0,.68.33c.14.05.18,0,.19-.12a1.85,1.85,0,0,1,.13-.54c.12.27.22.52.32.76a.11.11,0,0,0,.1.08,2.75,2.75,0,0,0,.41,0l.07,0h0l1.86-.7.07,0c0-.58,0-1,0-1.35a6.19,6.19,0,0,1,0-.89,4.46,4.46,0,0,1,.4-1.19s0,0,0,0l-.23-.29L13,13.9q.12,0,.12-.06s-.08-.06-.23-.09v0A1.73,1.73,0,0,1,13,13s0,0,0-.07a.33.33,0,0,1-.15-.28.39.39,0,0,1,.42-.39c.34,0,.67-.06,1-.06,0,0,.1,0,.14,0A1.17,1.17,0,0,1,13.9,11.17Zm-3.55,4.06a15.26,15.26,0,0,0,.23,2.86A5.76,5.76,0,0,1,10.35,15.23Z" style="fill:#27292b"/><path d="M12.83,13.72A1.76,1.76,0,0,1,13,13s0,0,0-.07a.39.39,0,0,1-.14-.29.39.39,0,0,1,.42-.38c.33,0,.67-.06,1-.06,0,0,.1,0,.14,0a1.15,1.15,0,0,1-.46-1,1.84,1.84,0,0,1,.14-.51.31.31,0,0,1,.17-.17,2.07,2.07,0,0,1,.36.63,1,1,0,0,1-.1,1c-.07.08,0,.15,0,.23a1.53,1.53,0,0,1,.11.48,3.45,3.45,0,0,1-.36,1.7.39.39,0,0,1-.39.25,1.16,1.16,0,0,1-.48-.14c-.11-.05-.18-.16-.32-.15a1.1,1.1,0,0,1-.07-.57c0-.1,0-.16-.11-.18h0Zm.25-.75a.65.65,0,0,0,.68,0A.94.94,0,0,0,13.08,13Zm.08.82c-.05,0-.1,0-.14,0s0,.06,0,.07a1.29,1.29,0,0,0,.47.11.07.07,0,0,0,.07-.06s0,0-.06,0A1.66,1.66,0,0,0,13.16,13.79Z" style="fill:#ca7f5d"/><path d="M13,14.5c.14,0,.21.1.32.15a1.16,1.16,0,0,0,.48.14.39.39,0,0,0,.39-.25,3.45,3.45,0,0,0,.36-1.7,1.53,1.53,0,0,0-.11-.48c0-.08-.06-.15,0-.23a1,1,0,0,0,.1-1,2.07,2.07,0,0,0-.36-.63c.22-.15.43,0,.64,0s.16.24.15.4,0,.57,0,.85a.71.71,0,0,0,.17.54.54.54,0,0,0,.09.12,1,1,0,0,1,.26,1,.86.86,0,0,0,0,.16,5.61,5.61,0,0,1-.3.93.85.85,0,0,1-.69.6,3.14,3.14,0,0,1-.61-.05,1,1,0,0,1-.82-.51Z" style="fill:#bf6e4f"/><rect x="21.75" y="6.21" width="1.53" height="22.51" style="fill:#878787"/><polygon points="21.75 28.72 23.29 28.72 23.29 6.21 23.26 6.21 21.75 28.72" style="fill:#878787;opacity:0.4;mix-blend-mode:color-burn"/></g></g></svg>